<?xml version="1.0" standalone="no"?><!DOCTYPE svg PUBLIC "-//W3C//DTD SVG 1.1//EN" "http://www.w3.org/Graphics/SVG/1.1/DTD/svg11.dtd"><svg t="1667285796203" class="icon" viewBox="0 0 1024 1024" version="1.1" xmlns="http://www.w3.org/2000/svg" p-id="10210" xmlns:xlink="http://www.w3.org/1999/xlink" width="32" height="32"><path d="M705.472 540.224s83.136 125.888 164.992 166.016c63.488 30.848-6.976 217.088-40.896 297.344-9.664 22.656-22.848 22.016-36.608 2.688-26.112-36.672-78.08-112.32-160.128-112.32H328.576c-82.112 0-134.08 75.648-160.128 112.32-13.76 19.328-27.072 19.968-36.608-2.688-33.92-80.32-104.384-266.496-40.96-297.344 81.92-40.128 165.056-166.016 165.056-166.016h449.536z" fill="#434343" p-id="10211"></path><path d="M716.288 579.968C693.12 381.824 614.4 67.84 516.864 4.928a295.36 295.36 0 0 0-34.496-2.176c-11.776 0-23.168 0.832-34.624 2.176-97.536 62.912-176.32 376.96-199.424 575.04-4.48 38.656-6.912 73.152-6.912 100.16 0 97.6 31.296 169.28 80.64 214.848h320.64c49.344-45.632 80.64-117.248 80.64-214.848a912.448 912.448 0 0 0-7.04-100.16zM480 256a96 96 0 1 1-0.064 192.064A96 96 0 0 1 480 256z" fill="#434343" p-id="10212"></path></svg>